<?xml version="1.0" encoding="utf-8"?><svg viewBox="0 0 25 24" xmlns="http://www.w3.org/2000/svg" xmlns:xlink="http://www.w3.org/1999/xlink"><style>:root>svg{display:none}:root>svg:target{display:block}</style><svg viewBox="0 0 22 22" id="arrow-down" xmlns="http://www.w3.org/2000/svg"><path fill-rule="evenodd" clip-rule="evenodd" d="M10.418 17.782V2.059h1.164v15.723l5.616-5.337.802.844-7 6.653-7-6.653.802-.844 5.616 5.337z"/></svg><svg viewBox="0 0 22 22" id="close" xmlns="http://www.w3.org/2000/svg"><path fill-rule="evenodd" clip-rule="evenodd" d="M10.293 11l-4.95 4.95.707.707 4.95-4.95 4.95 4.95.707-.707-4.95-4.95 4.95-4.95-.708-.706-4.95 4.95-4.95-4.95-.706.707 4.95 4.95z"/></svg><svg fill="none" viewBox="0 0 25 24" id="date" xmlns="http://www.w3.org/2000/svg"><path d="M18.938 4.954H17V3.546c0-.262-.23-.512-.5-.5a.51.51 0 00-.5.5v1.408H9V3.546c0-.262-.23-.512-.5-.5a.509.509 0 00-.5.5v1.408H6.062a2.503 2.503 0 00-2.5 2.5v11c0 1.38 1.122 2.5 2.5 2.5h12.875c1.379 0 2.5-1.12 2.5-2.5v-11a2.502 2.502 0 00-2.499-2.5zm-12.876 1H8v.592c0 .262.23.512.5.5.271-.012.5-.22.5-.5v-.592h7v.592c0 .262.23.512.5.5.271-.012.5-.22.5-.5v-.592h1.937c.827 0 1.5.673 1.5 1.5v1.584H4.562V7.454c0-.827.673-1.5 1.5-1.5zm12.876 14H6.062c-.827 0-1.5-.673-1.5-1.5v-8.416h15.875v8.416a1.5 1.5 0 01-1.499 1.5z" fill="#DCC5B7"/></svg><svg fill="none" viewBox="0 0 22 22" id="plus" xmlns="http://www.w3.org/2000/svg"><path fill-rule="evenodd" clip-rule="evenodd" d="M10.5 11.5v7h1v-7h7v-1h-7v-7h-1v7h-7v1h7z" fill="#000"/></svg></svg>